<svg xmlns="http://www.w3.org/2000/svg" viewBox="0 0 500 800" width="500" height="800">
  <title>SAFA Black Seed Oil — back label</title>
  <rect width="500" height="800" fill="#FBFAF6"/>
  <rect x="12" y="12" width="476" height="776" fill="none" stroke="#26201A" stroke-width="2.5"/>
  <text x="48" y="80" font-family="Newsreader, Georgia, serif" font-size="28" fill="#26201A">Black Seed Oil — the record</text>
  <line x1="48" y1="108" x2="452" y2="108" stroke="#26201A" stroke-width="2"/>
  <text x="48" y="146" font-family="Archivo, sans-serif" font-weight="800" font-size="13" letter-spacing="2.5" fill="#8A5A17">HOW TO USE</text>
  <text x="48" y="176" font-family="Archivo, sans-serif" font-size="13.5" fill="#26201A">One teaspoon (5 ml) daily, plain or in honey.</text>
  <text x="48" y="198" font-family="Archivo, sans-serif" font-size="13.5" fill="#26201A">Peppery by nature — that is the seed, not a flaw.</text>
  <line x1="48" y1="228" x2="452" y2="228" stroke="#26201A" stroke-width="2"/>
  <text x="48" y="264" font-family="Archivo, sans-serif" font-weight="800" font-size="13" letter-spacing="2.5" fill="#8A5A17">PER 5 ML</text>
  <text x="48" y="294" font-family="Archivo, sans-serif" font-size="13.5" fill="#26201A">Cold-pressed N. sativa oil</text><text x="452" y="294" text-anchor="end" font-family="Archivo, sans-serif" font-weight="700" font-size="13.5" fill="#26201A">5 ml (100%)</text><line x1="48" y1="302" x2="452" y2="302" stroke="#26201A" stroke-width="0.7" opacity="0.2"/>
<text x="48" y="326" font-family="Archivo, sans-serif" font-size="13.5" fill="#26201A">Thymoquinone (this batch)</text><text x="452" y="326" text-anchor="end" font-family="Archivo, sans-serif" font-weight="700" font-size="13.5" fill="#26201A">2.1% — HPLC</text><line x1="48" y1="334" x2="452" y2="334" stroke="#26201A" stroke-width="0.7" opacity="0.2"/>
<text x="48" y="358" font-family="Archivo, sans-serif" font-size="13.5" fill="#26201A">Energy</text><text x="452" y="358" text-anchor="end" font-family="Archivo, sans-serif" font-weight="700" font-size="13.5" fill="#26201A">185 kJ / 45 kcal</text><line x1="48" y1="366" x2="452" y2="366" stroke="#26201A" stroke-width="0.7" opacity="0.2"/>
<text x="48" y="390" font-family="Archivo, sans-serif" font-size="13.5" fill="#26201A">Fat</text><text x="452" y="390" text-anchor="end" font-family="Archivo, sans-serif" font-weight="700" font-size="13.5" fill="#26201A">5 g</text><line x1="48" y1="398" x2="452" y2="398" stroke="#26201A" stroke-width="0.7" opacity="0.2"/>
  <line x1="48" y1="428" x2="452" y2="428" stroke="#26201A" stroke-width="2"/>
  <text x="48" y="462" font-family="Archivo, sans-serif" font-weight="800" font-size="13" letter-spacing="2.5" fill="#8A5A17">THE RECORD</text>
  <text x="48" y="492" font-family="Archivo, sans-serif" font-size="13.5" fill="#26201A">Seed origin</text><text x="452" y="492" text-anchor="end" font-family="Archivo, sans-serif" font-weight="700" font-size="13.5" fill="#26201A">Ethiopia, harvest 2025</text><line x1="48" y1="500" x2="452" y2="500" stroke="#26201A" stroke-width="0.7" opacity="0.2"/>
<text x="48" y="524" font-family="Archivo, sans-serif" font-size="13.5" fill="#26201A">Pressing</text><text x="452" y="524" text-anchor="end" font-family="Archivo, sans-serif" font-weight="700" font-size="13.5" fill="#26201A">mechanical, ≤ 40 °C</text><line x1="48" y1="532" x2="452" y2="532" stroke="#26201A" stroke-width="0.7" opacity="0.2"/>
<text x="48" y="556" font-family="Archivo, sans-serif" font-size="13.5" fill="#26201A">Solvents</text><text x="452" y="556" text-anchor="end" font-family="Archivo, sans-serif" font-weight="700" font-size="13.5" fill="#26201A">none — verified</text><line x1="48" y1="564" x2="452" y2="564" stroke="#26201A" stroke-width="0.7" opacity="0.2"/>
<text x="48" y="588" font-family="Archivo, sans-serif" font-size="13.5" fill="#26201A">Batch</text><text x="452" y="588" text-anchor="end" font-family="Archivo, sans-serif" font-weight="700" font-size="13.5" fill="#26201A">SF-25-031</text><line x1="48" y1="596" x2="452" y2="596" stroke="#26201A" stroke-width="0.7" opacity="0.2"/>
  <text x="48" y="646" font-family="Archivo, sans-serif" font-size="12.5" fill="#26201A">Food supplement. Keep out of reach of children. Not a</text>
  <text x="48" y="666" font-family="Archivo, sans-serif" font-size="12.5" fill="#26201A">substitute for a varied diet. Consult a doctor in pregnancy.</text>
  <g transform="translate(48,692)"><rect width="60" height="60" fill="#FFFFFF" stroke="#26201A" stroke-width="1.5"/><g transform="translate(5,5) scale(1.52)" fill="#26201A"><path d="M0 0h9v9H0zM2 2h5v5H2zM24 0h9v9h-9zM26 2h5v5h-5zM0 24h9v9H0zM2 26h5v5H2zM12 0h3v3h-3zM18 3h3v3h-3zM12 6h3v3h-3zM15 9h3v3h-3zM21 12h3v3h-3zM12 12h3v3h-3zM27 12h3v3h-3zM3 12h3v3h-3zM9 15h3v3h-3zM15 15h3v3h-3zM24 18h3v3h-3zM30 18h3v3h-3zM12 21h3v3h-3zM18 21h3v3h-3zM12 27h3v3h-3zM18 27h3v3h-3zM24 24h3v3h-3zM27 27h3v3h-3zM30 30h3v3h-3z"/></g></g>
  <text x="124" y="718" font-family="Archivo, sans-serif" font-size="11.5" fill="#675E53">Batch chromatogram &amp; report — scan.</text>
  <text x="452" y="718" text-anchor="end" font-family="Archivo, sans-serif" font-size="10.5" fill="#675E53">SAFA Nutrition B.V.</text>
  <text x="452" y="736" text-anchor="end" font-family="Archivo, sans-serif" font-size="10.5" fill="#675E53">Amsterdam, NL · safanutrition.eu</text>
</svg>