<svg xmlns="http://www.w3.org/2000/svg" viewBox="0 0 520 780" width="520" height="780">
  <title>SAFA Qahwa + Collagen — pouch hero front</title>
  <defs><clipPath id="pouch"><path d="M60 24 h400 q14 0 15 14 l9 96 v600 q0 22 -22 22 h-404 q-22 0 -22 -22 v-600 l9 -96 q1 -14 15 -14 z"/></clipPath></defs>
  <g clip-path="url(#pouch)">
    <rect width="520" height="780" fill="#FBFAF6"/>
    <rect x="0" y="0" width="520" height="320" fill="#B97F24"/>
    <line x1="36" y1="52" x2="484" y2="52" stroke="#26201A" stroke-width="1" opacity=".35" stroke-dasharray="3 4"/>
    <g transform="translate(212,96)">
      <path d="M0 66 V31 C0 6 96 6 96 31 V66" stroke="#26201A" stroke-width="7" stroke-linecap="round" fill="none"/>
      <path d="M48 26 C48 26 66 51 66 63 A18 18 0 1 1 30 63 C30 51 48 26 48 26 Z" fill="#26201A"/>
    </g>
    <text x="260" y="216" text-anchor="middle" font-family="Archivo, sans-serif" font-weight="800" font-size="34" letter-spacing="14" fill="#26201A">SAFA</text>
    <text x="260" y="244" text-anchor="middle" font-family="Archivo, sans-serif" font-weight="700" font-size="13" letter-spacing="8" fill="#26201A">NUTRITION</text>
    <text x="260" y="292" text-anchor="middle" font-family="Amiri, serif" font-size="30" fill="#26201A">صفا</text>
    <text x="260" y="430" text-anchor="middle" font-family="Newsreader, Georgia, serif" font-size="52" fill="#26201A">Qahwa</text>
    <text x="260" y="482" text-anchor="middle" font-family="Newsreader, Georgia, serif" font-size="52" fill="#26201A">+ Collagen</text>
    <text x="260" y="524" text-anchor="middle" font-family="Newsreader, Georgia, serif" font-style="italic" font-size="21" fill="#8A5A17">arabic coffee, cardamom & saffron</text>
    <line x1="120" y1="560" x2="400" y2="560" stroke="#26201A" stroke-width="2"/>
    <text x="260" y="596" text-anchor="middle" font-family="Archivo, sans-serif" font-weight="700" font-size="16" letter-spacing="3" fill="#26201A">25 SERVINGS · NET 380 G</text>
    <text x="260" y="712" text-anchor="middle" font-family="Newsreader, serif" font-style="italic" font-size="15" fill="#8A5A17">purity, traced to its source</text>
    <rect x="0" y="0" width="14" height="780" fill="#26201A" opacity=".06"/>
    <rect x="506" y="0" width="14" height="780" fill="#26201A" opacity=".06"/>
  </g>
  <path d="M60 24 h400 q14 0 15 14 l9 96 v600 q0 22 -22 22 h-404 q-22 0 -22 -22 v-600 l9 -96 q1 -14 15 -14 z" fill="none" stroke="#26201A" stroke-width="2"/>
</svg>